# xmcd
#
# Track frame offsets:
# 150
# 14143
# 36520
# 47292
# 61291
# 85929
# 105866
# 127815
# 146057
# 161982
# 180334
# 199661
# 211951
# 225354
# 237552
# 252970
# 267198
#
# Disc length: 3701 seconds
#
# Revision: 0
# Processed by: cddbd v1.5.2PL0 Copyright (c) Steve Scherf et al.
# Submitted via: Audion 3.0.2 (http://www.panic.com/audion/)
#
DISCID=e50e7311
DTITLE=compil - compil
DYEAR=1900
DGENRE=
TTITLE0=aa
TTITLE1=zz
TTITLE2=eee
TTITLE3=zzzz
TTITLE4=eeeeeee
TTITLE5=ee
TTITLE6=e
TTITLE7=zzzz
TTITLE8=y
TTITLE9=yyy
TTITLE10=yy
TTITLE11=u
TTITLE12=uu
TTITLE13=uuuuuuu
TTITLE14=uuuuu
TTITLE15=uuuu
TTITLE16=uuuuuuuuuu
EXTD=
EXTT0=
EXTT1=
EXTT2=
EXTT3=
EXTT4=
EXTT5=
EXTT6=
EXTT7=
EXTT8=
EXTT9=
EXTT10=
EXTT11=
EXTT12=
EXTT13=
EXTT14=
EXTT15=
EXTT16=
PLAYORDER=
